<?xml version="1.0" standalone="no"?>
<!DOCTYPE svg PUBLIC "-//W3C//DTD SVG 20010904//EN"
 "http://www.w3.org/TR/2001/REC-SVG-20010904/DTD/svg10.dtd">
<svg version="1.0" xmlns="http://www.w3.org/2000/svg"
 width="39.960000pt" height="30.840000pt" viewBox="0 0 39.960000 30.840000"
 preserveAspectRatio="xMidYMid meet">
<metadata>
Created by Potrace Professional 1.1m
</metadata>
<g transform="translate(0.000000,30.840000) rotate(-360.00) scale(0.038571,-0.038571)"
fill="#689cc8" stroke="none">
<path fill="#689cc8" stroke="none" d="M0 400 l0 -400 518 0 518 0 0 400 0
400 -518 0 -518 0 0 -400z"/>
<path fill="#ffffff" stroke="none" d="M710 772 l12 -12 0 -150 0 -151 -7 7
c-17 16 -34 21 -65 21 -26 0 -31 -1 -45 -8 -28 -15 -48 -42 -53 -71 -2 -11 -1
-11 4 3 14 34 42 55 75 58 36 3 66 -14 82 -47 21 -46 1 -94 -45 -110 -20 -6
-40 -4 -64 7 -35 16 -51 21 -84 22 -29 2 -39 1 -80 -8 -54 -11 -68 -10 -94 7
-29 20 -41 63 -26 94 4 8 64 70 175 181 l169 169 17 0 c15 0 18 -1 29 -12z"/>
<path fill="#ffffff" stroke="none" d="M437 298 c-11 -16 -17 -32 -17 -49 0
-25 9 -36 47 -61 51 -33 68 -53 73 -82 6 -39 -34 -83 -81 -89 l-16 -2 17 8
c19 9 45 32 52 47 6 13 6 33 0 44 -6 13 -28 32 -54 49 -62 41 -73 89 -31 130
15 13 18 15 10 5z"/>
<path fill="#ffffff" stroke="none" d="M492 292 c-2 -14 1 -18 23 -32 19 -12
28 -26 25 -39 -2 -10 -18 -25 -26 -25 -4 0 -4 1 1 4 10 5 17 15 17 25 0 6 -3
11 -13 18 -27 22 -34 30 -34 40 0 9 5 22 8 22 1 0 0 -6 -1 -13z"/>
<path fill="#ffffff" stroke="none" d="M366 171 c-5 -20 3 -32 35 -50 31 -17
41 -28 41 -49 0 -12 -2 -15 -14 -27 -7 -8 -16 -14 -19 -14 -3 0 -1 3 6 10 28
24 20 46 -24 71 -23 13 -33 25 -33 41 0 10 7 31 10 31 1 0 0 -6 -2 -13z"/>
</g>
</svg>
