<?xml version="1.0" encoding="UTF-8"?>
<svg xmlns="http://www.w3.org/2000/svg" xmlns:xlink="http://www.w3.org/1999/xlink" width="40px" height="31px" viewBox="0 0 40 31" version="1.1">
<g id="surface1">
<path style=" stroke:none;fill-rule:nonzero;fill:rgb(39.607843%,61.176471%,78.039216%);fill-opacity:1;" d="M 0 15.511719 L 0 31.023438 L 40.023438 31.023438 L 40.023438 0.00390625 L 0 0.00390625 Z M 0 15.511719 "/>
<path style=" stroke:none;fill-rule:nonzero;fill:rgb(70.196078%,80%,88.627451%);fill-opacity:1;" d="M 27.097656 0.664062 C 27.273438 0.746094 27.296875 0.726562 27.226562 0.601562 C 27.15625 0.496094 27.175781 0.472656 27.261719 0.53125 C 27.34375 0.578125 27.378906 0.664062 27.351562 0.71875 C 27.316406 0.769531 27.367188 0.886719 27.472656 0.972656 C 27.992188 1.40625 28.003906 1.511719 28.003906 7.539062 C 28.003906 11.28125 27.96875 13.277344 27.886719 13.277344 C 27.816406 13.277344 27.765625 13.21875 27.765625 13.144531 C 27.765625 13.074219 27.683594 13.039062 27.589844 13.085938 C 27.484375 13.121094 27.421875 13.085938 27.4375 13.003906 C 27.449219 12.925781 27.367188 12.863281 27.253906 12.871094 C 27.148438 12.882812 27.0625 12.828125 27.078125 12.757812 C 27.132812 12.511719 25.933594 12.15625 25.054688 12.15625 C 24.035156 12.15625 23.121094 12.519531 22.433594 13.207031 C 22.003906 13.640625 21.441406 14.578125 21.554688 14.691406 C 21.589844 14.71875 21.644531 14.640625 21.6875 14.507812 C 21.792969 14.179688 22.882812 13.179688 23.351562 12.976562 C 24.371094 12.554688 25.40625 12.644531 26.445312 13.253906 C 26.734375 13.429688 27.035156 13.578125 27.105469 13.578125 C 27.167969 13.589844 27.210938 13.660156 27.191406 13.730469 C 27.175781 13.808594 27.296875 14.074219 27.464844 14.320312 C 27.632812 14.558594 27.765625 14.808594 27.765625 14.867188 C 27.765625 14.929688 27.808594 14.957031 27.851562 14.929688 C 27.90625 14.894531 27.957031 15.230469 27.984375 15.671875 C 28.019531 16.511719 27.800781 17.378906 27.449219 17.757812 C 27.351562 17.871094 27.253906 18.039062 27.246094 18.128906 C 27.203125 18.382812 27.035156 18.597656 26.929688 18.535156 C 26.875 18.5 26.578125 18.613281 26.269531 18.789062 C 25.398438 19.277344 24.492188 19.242188 23.253906 18.675781 C 21.1875 17.738281 19.65625 17.605469 17.132812 18.15625 C 15.398438 18.527344 14.660156 18.542969 13.957031 18.226562 C 13.339844 17.941406 13.296875 17.933594 13.410156 18.136719 C 13.464844 18.226562 13.457031 18.242188 13.394531 18.191406 C 13.332031 18.136719 13.289062 18.046875 13.304688 18.003906 C 13.351562 17.863281 12.585938 17.148438 12.460938 17.226562 C 12.398438 17.261719 12.375 17.246094 12.417969 17.175781 C 12.460938 17.101562 12.382812 16.792969 12.25 16.484375 C 12.066406 16.0625 12.011719 15.734375 12.039062 15.097656 C 12.066406 14.640625 12.109375 14.285156 12.152344 14.3125 C 12.25 14.375 12.515625 13.765625 12.445312 13.648438 C 12.410156 13.589844 12.460938 13.480469 12.558594 13.402344 C 12.664062 13.3125 12.742188 13.296875 12.742188 13.347656 C 12.742188 13.410156 14.363281 11.832031 16.339844 9.84375 C 18.320312 7.855469 19.902344 6.175781 19.867188 6.105469 C 19.824219 6.035156 19.839844 6.019531 19.894531 6.070312 C 20.023438 6.195312 21.644531 4.585938 21.546875 4.429688 C 21.511719 4.359375 21.527344 4.339844 21.597656 4.382812 C 21.730469 4.464844 22.996094 3.226562 22.902344 3.101562 C 22.867188 3.058594 22.875 3.050781 22.917969 3.078125 C 23.042969 3.175781 24.035156 2.148438 23.957031 2.015625 C 23.914062 1.945312 23.9375 1.929688 24.007812 1.972656 C 24.113281 2.042969 24.5 1.714844 24.429688 1.609375 C 24.414062 1.582031 24.441406 1.566406 24.492188 1.566406 C 24.675781 1.546875 25.347656 0.796875 25.277344 0.683594 C 25.230469 0.621094 25.265625 0.601562 25.335938 0.648438 C 25.417969 0.699219 25.574219 0.683594 25.6875 0.613281 C 25.917969 0.472656 26.71875 0.496094 27.097656 0.664062 Z M 27.097656 0.664062 "/>
<path style=" stroke:none;fill-rule:nonzero;fill:rgb(70.196078%,80%,88.627451%);fill-opacity:1;" d="M 23.199219 12.835938 C 23.199219 12.855469 23.023438 12.996094 22.804688 13.144531 L 22.417969 13.421875 L 22.75 13.101562 C 23.066406 12.820312 23.199219 12.738281 23.199219 12.835938 Z M 23.199219 12.835938 "/>
<path style=" stroke:none;fill-rule:nonzero;fill:rgb(70.196078%,80%,88.627451%);fill-opacity:1;" d="M 18.839844 18.058594 C 18.792969 18.101562 18.699219 18.101562 18.609375 18.066406 C 18.511719 18.03125 18.539062 18.003906 18.679688 17.996094 C 18.804688 17.988281 18.882812 18.023438 18.839844 18.058594 Z M 18.839844 18.058594 "/>
<path style=" stroke:none;fill-rule:nonzero;fill:rgb(70.196078%,80%,88.627451%);fill-opacity:1;" d="M 20.765625 18.058594 C 20.71875 18.101562 20.613281 18.101562 20.527344 18.066406 C 20.4375 18.03125 20.464844 18.003906 20.605469 17.996094 C 20.730469 17.988281 20.800781 18.023438 20.765625 18.058594 Z M 20.765625 18.058594 "/>
<path style=" stroke:none;fill-rule:nonzero;fill:rgb(70.196078%,80%,88.627451%);fill-opacity:1;" d="M 19.296875 19.1875 C 19.296875 19.3125 19.261719 19.390625 19.214844 19.363281 C 19.128906 19.3125 18.988281 19.601562 18.988281 19.859375 C 18.988281 20.054688 19.566406 20.761719 19.726562 20.761719 C 19.796875 20.761719 19.804688 20.699219 19.761719 20.609375 C 19.707031 20.53125 19.71875 20.496094 19.761719 20.539062 C 19.8125 20.582031 19.832031 20.652344 19.8125 20.691406 C 19.753906 20.796875 20.578125 21.371094 20.695312 21.300781 C 20.746094 21.265625 20.765625 21.316406 20.71875 21.40625 C 20.683594 21.503906 20.710938 21.617188 20.78125 21.660156 C 20.976562 21.785156 20.941406 22.605469 20.730469 22.90625 C 20.507812 23.214844 19.945312 23.542969 19.628906 23.535156 C 19.425781 23.535156 19.417969 23.523438 19.621094 23.375 C 19.734375 23.285156 19.804688 23.1875 19.769531 23.152344 C 19.734375 23.128906 19.859375 22.96875 20.042969 22.808594 L 20.378906 22.507812 L 20.078125 22.84375 C 19.917969 23.03125 19.847656 23.179688 19.929688 23.179688 C 20.121094 23.179688 20.429688 22.675781 20.429688 22.359375 C 20.429688 21.953125 20.203125 21.582031 20.007812 21.652344 C 19.910156 21.6875 19.847656 21.652344 19.867188 21.574219 C 19.875 21.492188 19.796875 21.429688 19.683594 21.441406 C 19.566406 21.449219 19.496094 21.414062 19.53125 21.359375 C 19.621094 21.21875 19.101562 20.875 18.945312 20.972656 C 18.875 21.007812 18.847656 21 18.898438 20.945312 C 18.945312 20.894531 18.898438 20.699219 18.804688 20.511719 C 18.574219 20.054688 18.582031 19.816406 18.875 19.347656 C 19.136719 18.90625 19.296875 18.84375 19.296875 19.1875 Z M 19.296875 19.1875 "/>
<path style=" stroke:none;fill-rule:nonzero;fill:rgb(70.196078%,80%,88.627451%);fill-opacity:1;" d="M 17.183594 19.214844 C 17.183594 19.257812 17.132812 19.339844 17.0625 19.375 C 16.867188 19.496094 16.375 20.546875 16.289062 21.035156 C 16.191406 21.539062 16.417969 22.375 16.613281 22.253906 C 16.691406 22.207031 16.710938 22.234375 16.648438 22.324219 C 16.59375 22.410156 16.691406 22.613281 16.894531 22.828125 C 17.238281 23.179688 17.519531 23.304688 17.351562 23.03125 C 17.308594 22.941406 17.316406 22.914062 17.378906 22.976562 C 17.441406 23.03125 17.492188 23.136719 17.492188 23.214844 C 17.492188 23.296875 17.589844 23.347656 17.703125 23.339844 C 17.808594 23.332031 17.878906 23.367188 17.84375 23.417969 C 17.765625 23.558594 18.601562 24.054688 18.75 23.957031 C 18.820312 23.921875 18.863281 23.957031 18.847656 24.046875 C 18.828125 24.132812 18.898438 24.195312 19.015625 24.1875 C 19.128906 24.179688 19.207031 24.222656 19.199219 24.292969 C 19.179688 24.363281 19.242188 24.445312 19.339844 24.480469 C 19.453125 24.515625 19.472656 24.488281 19.410156 24.371094 C 19.347656 24.277344 19.355469 24.242188 19.417969 24.300781 C 19.480469 24.355469 19.53125 24.46875 19.53125 24.550781 C 19.542969 24.621094 19.613281 24.671875 19.699219 24.65625 C 19.777344 24.636719 19.824219 24.664062 19.789062 24.726562 C 19.71875 24.832031 20.148438 25.300781 20.378906 25.371094 C 20.4375 25.398438 20.484375 25.449219 20.464844 25.503906 C 20.402344 25.6875 20.683594 26.078125 20.816406 26 C 20.894531 25.953125 20.914062 25.972656 20.871094 26.050781 C 20.824219 26.121094 20.84375 26.429688 20.914062 26.730469 C 21 27.121094 20.992188 27.4375 20.90625 27.792969 C 20.835938 28.074219 20.765625 28.402344 20.753906 28.507812 C 20.746094 28.621094 20.683594 28.699219 20.613281 28.691406 C 20.554688 28.683594 20.492188 28.753906 20.492188 28.851562 C 20.484375 29.105469 20.316406 29.347656 20.191406 29.273438 C 20.085938 29.203125 19.894531 29.433594 19.894531 29.636719 C 19.894531 29.699219 19.789062 29.753906 19.65625 29.753906 C 19.515625 29.753906 19.425781 29.824219 19.445312 29.921875 C 19.460938 30.007812 19.425781 30.042969 19.367188 30.007812 C 19.234375 29.921875 18.617188 30.175781 18.679688 30.289062 C 18.707031 30.328125 18.609375 30.371094 18.46875 30.378906 C 18.328125 30.386719 17.921875 30.433594 17.582031 30.484375 C 16.769531 30.601562 16.769531 30.433594 17.582031 30.113281 C 17.921875 29.980469 18.214844 29.8125 18.214844 29.734375 C 18.214844 29.65625 18.257812 29.550781 18.320312 29.496094 C 18.378906 29.433594 18.390625 29.460938 18.34375 29.550781 C 18.292969 29.628906 18.300781 29.699219 18.371094 29.699219 C 18.539062 29.699219 18.757812 29.382812 18.664062 29.285156 C 18.617188 29.238281 18.664062 29.230469 18.769531 29.273438 C 18.980469 29.355469 19.261719 29.082031 19.207031 28.84375 C 19.191406 28.753906 19.25 28.675781 19.347656 28.675781 C 19.445312 28.675781 19.628906 28.410156 19.761719 28.101562 C 19.980469 27.570312 19.980469 27.480469 19.8125 26.953125 C 19.71875 26.617188 19.566406 26.378906 19.460938 26.371094 C 19.367188 26.371094 19.304688 26.296875 19.320312 26.210938 C 19.375 25.988281 19.101562 25.6875 18.917969 25.757812 C 18.839844 25.796875 18.699219 25.722656 18.609375 25.617188 C 18.460938 25.425781 18.46875 25.425781 18.679688 25.59375 C 18.839844 25.707031 18.882812 25.714844 18.820312 25.617188 C 18.707031 25.414062 17.773438 24.824219 17.582031 24.824219 C 17.5 24.824219 17.464844 24.789062 17.492188 24.734375 C 17.5625 24.621094 17.089844 24.328125 16.824219 24.320312 C 16.726562 24.320312 16.65625 24.257812 16.675781 24.1875 C 16.699219 24.039062 16.226562 23.558594 16.050781 23.542969 C 15.980469 23.542969 15.925781 23.445312 15.925781 23.332031 C 15.925781 23.214844 15.855469 23.136719 15.769531 23.152344 C 15.679688 23.171875 15.636719 23.136719 15.671875 23.082031 C 15.707031 23.03125 15.65625 22.710938 15.558594 22.386719 C 15.398438 21.855469 15.40625 21.714844 15.574219 21.121094 C 15.671875 20.761719 15.777344 20.355469 15.796875 20.222656 C 15.820312 20.089844 15.890625 19.992188 15.953125 20 C 16.015625 20.019531 16.226562 19.867188 16.410156 19.671875 C 16.59375 19.46875 16.710938 19.3125 16.664062 19.3125 C 16.613281 19.3125 16.59375 19.265625 16.628906 19.222656 C 16.699219 19.101562 17.183594 19.089844 17.183594 19.214844 Z M 17.183594 19.214844 "/>
<path style=" stroke:none;fill-rule:nonzero;fill:rgb(70.196078%,80%,88.627451%);fill-opacity:1;" d="M 14.492188 23.894531 C 14.492188 24.019531 14.457031 24.097656 14.414062 24.074219 C 14.292969 24 14.1875 24.347656 14.1875 24.796875 C 14.1875 25.195312 14.5625 25.832031 14.800781 25.832031 C 14.863281 25.832031 14.878906 25.769531 14.835938 25.699219 C 14.773438 25.609375 14.800781 25.582031 14.890625 25.644531 C 14.96875 25.6875 15.003906 25.777344 14.96875 25.832031 C 14.933594 25.882812 15.152344 26.050781 15.460938 26.203125 C 16.523438 26.722656 17.183594 27.5 17.183594 28.222656 C 17.183594 28.886719 16.199219 29.945312 15.574219 29.9375 C 15.328125 29.929688 15.328125 29.929688 15.566406 29.742188 C 15.699219 29.644531 15.796875 29.515625 15.777344 29.460938 C 15.769531 29.40625 15.875 29.257812 16.023438 29.132812 L 16.289062 28.914062 L 16.050781 29.214844 L 15.804688 29.515625 L 16.066406 29.292969 C 16.207031 29.179688 16.394531 28.914062 16.472656 28.726562 C 16.621094 28.355469 16.535156 27.703125 16.347656 27.816406 C 16.289062 27.863281 16.199219 27.828125 16.15625 27.746094 C 16.101562 27.660156 16.121094 27.640625 16.207031 27.695312 C 16.410156 27.816406 16.375 27.578125 16.171875 27.402344 C 16.078125 27.324219 15.925781 27.304688 15.847656 27.351562 C 15.761719 27.402344 15.742188 27.386719 15.796875 27.304688 C 15.875 27.164062 14.757812 26.5 14.421875 26.5 C 14.328125 26.5 14.238281 26.441406 14.238281 26.378906 C 14.230469 26.191406 13.746094 25.46875 13.675781 25.53125 C 13.648438 25.566406 13.65625 25.316406 13.71875 24.972656 C 13.773438 24.628906 13.867188 24.285156 13.9375 24.222656 C 14.152344 24.011719 14.082031 23.859375 13.851562 24.039062 C 13.65625 24.1875 13.65625 24.1875 13.808594 23.992188 C 13.894531 23.878906 14.011719 23.808594 14.070312 23.84375 C 14.125 23.878906 14.203125 23.851562 14.238281 23.78125 C 14.363281 23.585938 14.492188 23.640625 14.492188 23.894531 Z M 14.492188 23.894531 "/>
<path style=" stroke:none;fill-rule:nonzero;fill:rgb(70.196078%,80%,88.627451%);fill-opacity:1;" d="M 13.542969 25.132812 C 13.507812 25.230469 13.472656 25.203125 13.472656 25.0625 C 13.464844 24.929688 13.492188 24.859375 13.535156 24.902344 C 13.570312 24.9375 13.578125 25.042969 13.542969 25.132812 Z M 13.542969 25.132812 "/>
</g>
</svg>
