<?xml version="1.0" encoding="UTF-8"?>
<svg xmlns="http://www.w3.org/2000/svg" xmlns:xlink="http://www.w3.org/1999/xlink" width="44px" height="34px" viewBox="0 0 44 34" version="1.1">
<g id="surface1">
<path style=" stroke:none;fill-rule:nonzero;fill:rgb(34.901961%,58.823529%,80%);fill-opacity:1;" d="M 0 17.015625 L 0 34.027344 L 44.027344 34.027344 L 44.027344 0.00390625 L 0 0.00390625 Z M 0 17.015625 "/>
<path style=" stroke:none;fill-rule:nonzero;fill:rgb(70.196078%,80%,88.627451%);fill-opacity:1;" d="M 29.804688 0.730469 C 30 0.816406 30.027344 0.796875 29.949219 0.660156 C 29.875 0.546875 29.894531 0.515625 29.988281 0.585938 C 30.078125 0.632812 30.117188 0.730469 30.085938 0.789062 C 30.046875 0.847656 30.105469 0.972656 30.222656 1.070312 C 30.792969 1.542969 30.800781 1.660156 30.800781 8.265625 C 30.800781 12.375 30.761719 14.5625 30.675781 14.5625 C 30.597656 14.5625 30.539062 14.496094 30.539062 14.417969 C 30.539062 14.339844 30.453125 14.300781 30.347656 14.351562 C 30.230469 14.390625 30.164062 14.351562 30.183594 14.261719 C 30.191406 14.175781 30.105469 14.109375 29.980469 14.117188 C 29.863281 14.128906 29.765625 14.070312 29.785156 13.992188 C 29.84375 13.722656 28.527344 13.332031 27.5625 13.332031 C 26.4375 13.332031 25.433594 13.730469 24.679688 14.484375 C 24.203125 14.960938 23.585938 15.988281 23.710938 16.113281 C 23.75 16.144531 23.808594 16.054688 23.855469 15.910156 C 23.972656 15.550781 25.171875 14.457031 25.683594 14.234375 C 26.808594 13.769531 27.949219 13.867188 29.089844 14.535156 C 29.410156 14.726562 29.738281 14.894531 29.816406 14.894531 C 29.882812 14.902344 29.929688 14.980469 29.914062 15.058594 C 29.894531 15.144531 30.027344 15.4375 30.210938 15.707031 C 30.394531 15.96875 30.539062 16.238281 30.539062 16.308594 C 30.539062 16.375 30.589844 16.40625 30.636719 16.375 C 30.695312 16.335938 30.753906 16.703125 30.78125 17.1875 C 30.820312 18.109375 30.578125 19.058594 30.191406 19.476562 C 30.085938 19.601562 29.980469 19.785156 29.96875 19.882812 C 29.921875 20.164062 29.738281 20.394531 29.621094 20.328125 C 29.5625 20.289062 29.234375 20.414062 28.894531 20.609375 C 27.9375 21.140625 26.941406 21.101562 25.578125 20.484375 C 23.304688 19.457031 21.621094 19.3125 18.84375 19.910156 C 16.9375 20.316406 16.125 20.335938 15.351562 19.988281 C 14.675781 19.679688 14.628906 19.667969 14.753906 19.890625 C 14.8125 19.988281 14.800781 20.007812 14.734375 19.949219 C 14.664062 19.890625 14.617188 19.796875 14.636719 19.746094 C 14.683594 19.589844 13.84375 18.808594 13.707031 18.894531 C 13.640625 18.933594 13.613281 18.914062 13.660156 18.835938 C 13.707031 18.757812 13.621094 18.417969 13.476562 18.082031 C 13.273438 17.617188 13.214844 17.257812 13.242188 16.558594 C 13.273438 16.054688 13.320312 15.667969 13.371094 15.695312 C 13.476562 15.765625 13.765625 15.097656 13.6875 14.96875 C 13.648438 14.902344 13.707031 14.785156 13.816406 14.699219 C 13.929688 14.601562 14.019531 14.582031 14.019531 14.640625 C 14.019531 14.710938 15.796875 12.976562 17.972656 10.796875 C 20.152344 8.617188 21.890625 6.773438 21.855469 6.699219 C 21.804688 6.621094 21.824219 6.601562 21.882812 6.660156 C 22.027344 6.792969 23.808594 5.03125 23.703125 4.855469 C 23.664062 4.777344 23.683594 4.761719 23.757812 4.808594 C 23.90625 4.894531 25.296875 3.539062 25.191406 3.402344 C 25.152344 3.355469 25.164062 3.34375 25.210938 3.375 C 25.347656 3.480469 26.4375 2.355469 26.351562 2.210938 C 26.304688 2.132812 26.332031 2.113281 26.410156 2.164062 C 26.527344 2.242188 26.953125 1.882812 26.875 1.765625 C 26.855469 1.738281 26.882812 1.71875 26.941406 1.71875 C 27.144531 1.699219 27.878906 0.875 27.804688 0.75 C 27.753906 0.679688 27.792969 0.660156 27.871094 0.710938 C 27.957031 0.769531 28.132812 0.75 28.257812 0.671875 C 28.507812 0.515625 29.390625 0.546875 29.804688 0.730469 Z M 29.804688 0.730469 "/>
<path style=" stroke:none;fill-rule:nonzero;fill:rgb(70.196078%,80%,88.627451%);fill-opacity:1;" d="M 25.519531 14.078125 C 25.519531 14.097656 25.328125 14.253906 25.085938 14.417969 L 24.660156 14.71875 L 25.027344 14.371094 C 25.375 14.058594 25.519531 13.972656 25.519531 14.078125 Z M 25.519531 14.078125 "/>
<path style=" stroke:none;fill-rule:nonzero;fill:rgb(70.196078%,80%,88.627451%);fill-opacity:1;" d="M 20.722656 19.804688 C 20.671875 19.851562 20.566406 19.851562 20.46875 19.816406 C 20.363281 19.777344 20.394531 19.746094 20.546875 19.738281 C 20.683594 19.726562 20.769531 19.765625 20.722656 19.804688 Z M 20.722656 19.804688 "/>
<path style=" stroke:none;fill-rule:nonzero;fill:rgb(70.196078%,80%,88.627451%);fill-opacity:1;" d="M 22.839844 19.804688 C 22.792969 19.851562 22.675781 19.851562 22.578125 19.816406 C 22.484375 19.777344 22.511719 19.746094 22.667969 19.738281 C 22.800781 19.726562 22.878906 19.765625 22.839844 19.804688 Z M 22.839844 19.804688 "/>
<path style=" stroke:none;fill-rule:nonzero;fill:rgb(70.196078%,80%,88.627451%);fill-opacity:1;" d="M 21.226562 21.042969 C 21.226562 21.179688 21.1875 21.269531 21.136719 21.238281 C 21.042969 21.179688 20.886719 21.5 20.886719 21.78125 C 20.886719 21.996094 21.523438 22.769531 21.699219 22.769531 C 21.777344 22.769531 21.785156 22.703125 21.738281 22.605469 C 21.679688 22.515625 21.6875 22.480469 21.738281 22.527344 C 21.796875 22.574219 21.816406 22.652344 21.796875 22.691406 C 21.726562 22.808594 22.636719 23.4375 22.761719 23.359375 C 22.820312 23.320312 22.839844 23.378906 22.792969 23.476562 C 22.753906 23.582031 22.78125 23.710938 22.859375 23.757812 C 23.074219 23.894531 23.035156 24.792969 22.800781 25.125 C 22.558594 25.460938 21.941406 25.820312 21.59375 25.8125 C 21.371094 25.8125 21.359375 25.800781 21.582031 25.636719 C 21.707031 25.539062 21.785156 25.433594 21.746094 25.394531 C 21.707031 25.367188 21.84375 25.191406 22.046875 25.015625 L 22.414062 24.6875 L 22.085938 25.054688 C 21.910156 25.257812 21.835938 25.421875 21.921875 25.421875 C 22.132812 25.421875 22.472656 24.871094 22.472656 24.523438 C 22.472656 24.078125 22.222656 23.671875 22.007812 23.746094 C 21.902344 23.785156 21.835938 23.746094 21.855469 23.660156 C 21.863281 23.574219 21.777344 23.503906 21.652344 23.515625 C 21.523438 23.523438 21.449219 23.484375 21.484375 23.429688 C 21.582031 23.273438 21.011719 22.894531 20.839844 23 C 20.761719 23.039062 20.730469 23.03125 20.789062 22.972656 C 20.839844 22.914062 20.789062 22.703125 20.683594 22.5 C 20.429688 21.996094 20.441406 21.734375 20.761719 21.21875 C 21.050781 20.734375 21.226562 20.667969 21.226562 21.042969 Z M 21.226562 21.042969 "/>
<path style=" stroke:none;fill-rule:nonzero;fill:rgb(70.196078%,80%,88.627451%);fill-opacity:1;" d="M 18.902344 21.074219 C 18.902344 21.121094 18.84375 21.210938 18.769531 21.25 C 18.554688 21.382812 18.011719 22.535156 17.917969 23.070312 C 17.808594 23.621094 18.0625 24.542969 18.273438 24.40625 C 18.363281 24.359375 18.378906 24.386719 18.3125 24.484375 C 18.253906 24.582031 18.363281 24.804688 18.582031 25.035156 C 18.960938 25.421875 19.269531 25.558594 19.085938 25.257812 C 19.039062 25.164062 19.046875 25.132812 19.117188 25.199219 C 19.183594 25.257812 19.242188 25.375 19.242188 25.460938 C 19.242188 25.550781 19.347656 25.609375 19.472656 25.597656 C 19.589844 25.589844 19.667969 25.628906 19.628906 25.683594 C 19.542969 25.839844 20.460938 26.382812 20.625 26.277344 C 20.703125 26.238281 20.75 26.277344 20.730469 26.375 C 20.710938 26.46875 20.789062 26.539062 20.914062 26.527344 C 21.042969 26.519531 21.128906 26.566406 21.117188 26.644531 C 21.097656 26.722656 21.167969 26.808594 21.273438 26.847656 C 21.398438 26.886719 21.417969 26.859375 21.351562 26.730469 C 21.28125 26.625 21.292969 26.585938 21.359375 26.652344 C 21.429688 26.710938 21.484375 26.839844 21.484375 26.925781 C 21.496094 27.003906 21.574219 27.0625 21.667969 27.042969 C 21.757812 27.023438 21.804688 27.050781 21.765625 27.117188 C 21.6875 27.234375 22.164062 27.75 22.414062 27.828125 C 22.484375 27.855469 22.53125 27.914062 22.511719 27.972656 C 22.445312 28.175781 22.753906 28.601562 22.898438 28.515625 C 22.984375 28.464844 23.003906 28.484375 22.957031 28.574219 C 22.90625 28.648438 22.925781 28.988281 23.003906 29.316406 C 23.101562 29.746094 23.09375 30.09375 22.996094 30.480469 C 22.917969 30.789062 22.839844 31.148438 22.832031 31.265625 C 22.820312 31.390625 22.753906 31.480469 22.675781 31.46875 C 22.609375 31.460938 22.539062 31.535156 22.539062 31.644531 C 22.53125 31.925781 22.347656 32.1875 22.210938 32.109375 C 22.09375 32.03125 21.882812 32.28125 21.882812 32.503906 C 21.882812 32.574219 21.765625 32.632812 21.621094 32.632812 C 21.464844 32.632812 21.371094 32.707031 21.390625 32.816406 C 21.410156 32.914062 21.371094 32.949219 21.300781 32.914062 C 21.15625 32.816406 20.480469 33.097656 20.546875 33.222656 C 20.578125 33.261719 20.46875 33.308594 20.316406 33.320312 C 20.160156 33.328125 19.714844 33.378906 19.339844 33.433594 C 18.449219 33.5625 18.449219 33.378906 19.339844 33.027344 C 19.714844 32.882812 20.035156 32.699219 20.035156 32.613281 C 20.035156 32.523438 20.082031 32.410156 20.152344 32.351562 C 20.21875 32.28125 20.226562 32.3125 20.179688 32.410156 C 20.121094 32.496094 20.132812 32.574219 20.210938 32.574219 C 20.394531 32.574219 20.632812 32.222656 20.527344 32.117188 C 20.480469 32.070312 20.527344 32.058594 20.644531 32.109375 C 20.875 32.195312 21.1875 31.894531 21.128906 31.632812 C 21.109375 31.535156 21.175781 31.449219 21.28125 31.449219 C 21.390625 31.449219 21.59375 31.160156 21.738281 30.820312 C 21.980469 30.238281 21.980469 30.140625 21.796875 29.558594 C 21.6875 29.191406 21.523438 28.929688 21.410156 28.921875 C 21.300781 28.921875 21.234375 28.84375 21.253906 28.746094 C 21.3125 28.503906 21.011719 28.175781 20.808594 28.253906 C 20.722656 28.292969 20.566406 28.214844 20.46875 28.097656 C 20.304688 27.882812 20.316406 27.882812 20.546875 28.070312 C 20.722656 28.195312 20.769531 28.203125 20.703125 28.097656 C 20.578125 27.875 19.550781 27.226562 19.339844 27.226562 C 19.25 27.226562 19.210938 27.1875 19.242188 27.128906 C 19.320312 27.003906 18.796875 26.683594 18.507812 26.671875 C 18.398438 26.671875 18.324219 26.605469 18.34375 26.527344 C 18.371094 26.363281 17.847656 25.839844 17.65625 25.820312 C 17.578125 25.820312 17.519531 25.714844 17.519531 25.589844 C 17.519531 25.460938 17.441406 25.375 17.34375 25.394531 C 17.25 25.414062 17.199219 25.375 17.238281 25.316406 C 17.277344 25.257812 17.21875 24.910156 17.113281 24.550781 C 16.9375 23.96875 16.949219 23.816406 17.132812 23.167969 C 17.238281 22.769531 17.355469 22.324219 17.375 22.179688 C 17.402344 22.03125 17.480469 21.925781 17.546875 21.9375 C 17.617188 21.957031 17.847656 21.789062 18.050781 21.578125 C 18.253906 21.355469 18.378906 21.179688 18.332031 21.179688 C 18.273438 21.179688 18.253906 21.132812 18.292969 21.082031 C 18.371094 20.949219 18.902344 20.9375 18.902344 21.074219 Z M 18.902344 21.074219 "/>
<path style=" stroke:none;fill-rule:nonzero;fill:rgb(70.196078%,80%,88.627451%);fill-opacity:1;" d="M 15.941406 26.207031 C 15.941406 26.34375 15.902344 26.429688 15.855469 26.402344 C 15.71875 26.324219 15.605469 26.703125 15.605469 27.195312 C 15.605469 27.632812 16.019531 28.332031 16.28125 28.332031 C 16.347656 28.332031 16.367188 28.261719 16.320312 28.183594 C 16.253906 28.085938 16.28125 28.058594 16.378906 28.125 C 16.464844 28.175781 16.503906 28.273438 16.464844 28.332031 C 16.425781 28.386719 16.667969 28.574219 17.007812 28.738281 C 18.175781 29.308594 18.902344 30.160156 18.902344 30.957031 C 18.902344 31.683594 17.820312 32.84375 17.132812 32.835938 C 16.863281 32.824219 16.863281 32.824219 17.125 32.621094 C 17.269531 32.515625 17.375 32.371094 17.355469 32.3125 C 17.34375 32.253906 17.460938 32.089844 17.625 31.953125 L 17.917969 31.710938 L 17.65625 32.039062 L 17.382812 32.371094 L 17.675781 32.128906 C 17.828125 32 18.03125 31.710938 18.121094 31.507812 C 18.285156 31.101562 18.1875 30.382812 17.984375 30.511719 C 17.917969 30.558594 17.820312 30.519531 17.769531 30.433594 C 17.714844 30.335938 17.734375 30.316406 17.828125 30.375 C 18.050781 30.511719 18.011719 30.25 17.789062 30.054688 C 17.683594 29.96875 17.519531 29.949219 17.433594 29.996094 C 17.335938 30.054688 17.316406 30.035156 17.375 29.949219 C 17.460938 29.792969 16.234375 29.066406 15.867188 29.066406 C 15.757812 29.066406 15.664062 29 15.664062 28.929688 C 15.652344 28.726562 15.121094 27.933594 15.042969 28 C 15.015625 28.039062 15.023438 27.769531 15.089844 27.390625 C 15.148438 27.011719 15.257812 26.632812 15.332031 26.566406 C 15.566406 26.335938 15.488281 26.167969 15.238281 26.363281 C 15.023438 26.527344 15.023438 26.527344 15.1875 26.316406 C 15.285156 26.1875 15.410156 26.113281 15.476562 26.148438 C 15.535156 26.1875 15.625 26.160156 15.664062 26.082031 C 15.796875 25.871094 15.941406 25.925781 15.941406 26.207031 Z M 15.941406 26.207031 "/>
<path style=" stroke:none;fill-rule:nonzero;fill:rgb(70.196078%,80%,88.627451%);fill-opacity:1;" d="M 14.898438 27.566406 C 14.859375 27.671875 14.820312 27.640625 14.820312 27.488281 C 14.8125 27.34375 14.839844 27.265625 14.886719 27.3125 C 14.925781 27.351562 14.9375 27.46875 14.898438 27.566406 Z M 14.898438 27.566406 "/>
</g>
</svg>
