<?xml version="1.0" standalone="no"?>
<!DOCTYPE svg PUBLIC "-//W3C//DTD SVG 20010904//EN"
 "http://www.w3.org/TR/2001/REC-SVG-20010904/DTD/svg10.dtd">
<svg version="1.0" xmlns="http://www.w3.org/2000/svg"
 width="333.000000pt" height="257.000000pt" viewBox="0 0 333.000000 257.000000"
 preserveAspectRatio="xMidYMid meet">
<metadata>
Created by Potrace Professional 1.1m
</metadata>
<g transform="translate(0.000000,257.000000) rotate(-360.00) scale(0.095238,-0.095238)"
fill="#5996cc" stroke="none">
<path fill="#5996cc" stroke="none" d="M0 1349 l0 -1349 1748 0 1749 0 0 1349
0 1350 -1749 0 -1748 0 0 -1350z"/>
<path fill="#b3cce2" stroke="none" d="M2367 2641 c15 -7 18 -6 11 5 -5 9 -4
11 4 6 7 -4 10 -11 7 -16 -3 -5 2 -15 11 -22 46 -38 47 -47 47 -571 0 -326 -4
-499 -11 -499 -6 0 -10 5 -10 11 0 7 -8 9 -16 6 -9 -4 -15 -1 -13 7 1 7 -6 12
-16 11 -10 -1 -17 3 -15 10 4 21 -100 52 -177 52 -89 0 -170 -32 -229 -91 -38
-38 -87 -119 -77 -129 3 -3 8 4 12 16 9 28 104 115 145 132 89 38 179 30 270
-23 26 -16 52 -29 58 -29 6 0 9 -6 8 -13 -2 -7 9 -30 23 -51 15 -21 27 -43 27
-48 0 -5 3 -8 7 -5 5 3 10 -27 11 -65 4 -73 -15 -148 -46 -181 -9 -10 -17 -24
-18 -32 -4 -23 -18 -41 -28 -36 -4 3 -30 -7 -57 -22 -76 -42 -155 -39 -264 10
-180 82 -314 93 -535 45 -150 -32 -215 -34 -277 -6 -53 25 -57 25 -47 8 4 -8
3 -10 -2 -5 -5 5 -9 12 -8 16 4 13 -63 75 -73 68 -6 -3 -8 -1 -4 5 4 6 -3 33
-15 59 -16 38 -21 66 -18 121 2 40 6 71 10 69 8 -6 32 47 25 58 -3 4 2 14 10
21 9 7 16 9 16 4 0 -5 141 132 314 305 173 173 312 319 308 326 -3 6 -2 7 3 3
12 -11 153 129 145 142 -4 6 -2 8 4 4 12 -7 122 101 114 112 -4 4 -3 5 1 2 11
-9 98 80 91 92 -4 6 -2 8 4 4 10 -6 44 22 37 31 -1 2 1 4 5 4 17 1 75 67 69
77 -3 6 -1 7 6 3 6 -4 20 -3 30 4 20 12 90 9 123 -5z"/>
<path fill="#b3cce2" stroke="none" d="M2027 1582 c0 -2 -16 -14 -35 -27 l-34
-24 30 27 c27 25 39 33 39 24z"/>
<path fill="#b3cce2" stroke="none" d="M1646 1128 c-4 -4 -13 -4 -20 -1 -9 3
-6 6 6 6 11 1 17 -2 14 -5z"/>
<path fill="#b3cce2" stroke="none" d="M1814 1128 c-4 -4 -13 -4 -20 -1 -9 3
-6 6 6 6 11 1 17 -2 14 -5z"/>
<path fill="#b3cce2" stroke="none" d="M1686 1030 c0 -11 -3 -18 -7 -16 -8 5
-20 -21 -20 -43 0 -17 50 -78 65 -78 5 0 6 5 2 13 -4 7 -4 10 0 6 5 -4 7 -10
5 -13 -6 -9 67 -59 76 -53 5 3 7 -1 3 -10 -3 -8 0 -18 6 -22 17 -10 13 -82 -5
-108 -19 -27 -69 -55 -96 -55 -18 1 -18 1 -1 14 10 8 16 17 13 19 -3 3 8 17
24 31 l29 25 -26 -29 c-14 -16 -20 -28 -13 -28 17 0 44 43 44 71 0 35 -20 68
-37 61 -9 -3 -14 0 -13 7 2 7 -5 12 -16 11 -10 0 -15 3 -12 7 7 13 -38 43 -52
35 -7 -4 -8 -3 -4 1 4 5 0 22 -8 38 -21 40 -19 61 5 102 24 38 38 44 38 14z"/>
<path fill="#b3cce2" stroke="none" d="M1502 1027 c0 -4 -5 -10 -11 -14 -17
-10 -61 -102 -68 -144 -9 -44 11 -117 28 -106 7 4 9 2 4 -6 -5 -8 3 -25 21
-44 30 -31 54 -41 40 -17 -4 7 -3 9 2 4 5 -5 10 -14 10 -21 0 -7 8 -12 18 -11
10 1 16 -2 13 -7 -7 -12 66 -55 79 -47 6 4 10 1 8 -7 -1 -7 5 -13 15 -12 10 0
17 -4 16 -10 -1 -5 4 -13 12 -15 10 -4 12 -1 7 9 -5 8 -5 11 1 5 5 -4 9 -14
10 -21 0 -6 6 -10 14 -9 7 2 10 -1 7 -6 -5 -9 32 -50 52 -56 6 -2 9 -7 7 -12
-5 -16 20 -50 32 -43 6 4 8 2 4 -4 -4 -6 -2 -33 4 -60 7 -33 7 -61 -1 -92 -6
-25 -12 -53 -13 -62 0 -10 -6 -17 -12 -16 -6 1 -11 -5 -11 -14 0 -22 -15 -43
-26 -37 -10 6 -26 -13 -26 -31 0 -6 -10 -11 -21 -11 -12 0 -20 -6 -18 -14 1
-7 -2 -11 -7 -7 -12 7 -66 -15 -60 -25 2 -3 -6 -7 -19 -8 -12 0 -47 -5 -77 -9
-71 -10 -71 5 0 32 30 11 55 26 55 33 0 7 4 16 9 21 6 5 7 3 2 -4 -4 -8 -3
-13 3 -13 14 0 34 27 25 35 -4 4 0 5 9 1 19 -7 43 17 39 38 -2 8 4 14 12 14 9
1 25 23 36 50 19 47 20 54 5 100 -9 29 -22 50 -31 51 -8 0 -13 6 -12 14 4 19
-19 45 -35 39 -7 -3 -20 3 -27 12 -13 17 -13 17 6 3 13 -11 18 -12 12 -3 -10
18 -91 69 -108 69 -7 0 -10 4 -7 8 5 10 -36 35 -59 36 -9 0 -15 6 -14 12 3 13
-38 54 -54 55 -6 1 -11 9 -11 19 0 11 -6 17 -14 16 -7 -2 -11 1 -8 6 3 5 -2
32 -10 61 -13 46 -13 58 1 109 9 32 18 67 20 79 2 11 8 20 14 19 5 -2 23 11
40 28 16 18 26 32 22 32 -5 0 -6 3 -3 8 6 10 49 11 49 0z"/>
<path fill="#b3cce2" stroke="none" d="M1266 620 c0 -11 -3 -18 -7 -16 -11 7
-20 -23 -20 -63 0 -34 34 -89 54 -89 6 0 7 5 3 12 -5 7 -3 9 5 4 6 -4 9 -11 6
-16 -3 -5 17 -20 44 -33 93 -45 151 -112 151 -175 0 -58 -87 -150 -141 -149
-22 0 -22 0 -1 16 11 9 20 20 19 25 -2 5 8 17 21 28 l23 20 -21 -26 -21 -27
22 19 c13 11 29 33 36 50 13 32 6 89 -11 79 -5 -4 -12 -1 -17 6 -4 8 -3 9 5 5
17 -11 15 10 -3 25 -9 7 -21 9 -28 5 -8 -5 -10 -4 -5 4 7 12 -91 69 -120 70
-9 0 -16 4 -16 10 -1 17 -43 80 -49 73 -3 -2 -2 20 3 50 5 29 14 59 20 65 18
18 12 31 -8 16 -17 -13 -17 -13 -4 4 8 10 18 15 23 12 5 -2 12 0 15 6 11 17
22 12 22 -10z"/>
<path fill="#b3cce2" stroke="none" d="M1183 513 c-3 -9 -6 -6 -6 6 -1 11 2
17 5 14 4 -4 4 -13 1 -20z"/>
</g>
</svg>
